<svg xmlns="http://www.w3.org/2000/svg" viewBox="0 0 750 500"><g id="freepik--background-complete--inject-125"><path d="M53.89,292.54s-9.33,1.68-3.25,22,11,30.75,11,30.75.89,4.62-2.86,4.62-11.53-2.74-14,1.42,0,9.26,6.11,14.33,19,16.64,20.2,17.69,2.08,3.28-.48,3.7-20.91-1-21.06,7.73,19.13,20.06,21.22,21.34,2.45,2.32,2,3.52-6.53.14-11.77-.05-11.33.51-11,5.56S60.76,442.61,90,451l13.78,3,9.69-10.33c19.4-23.37,21-39.46,18.42-43.82s-8-1.49-12.22,1.61-8.68,7.44-9.69,6.68-1.31-1.83-.3-4.06,10.55-22.45,5.5-29.59-19.41,4.38-21.76,5.48-2.84-1.27-2.48-2.77,4.53-18.39,6.71-26,1.48-13.16-3-15.29c-4.35-2.06-9.22,4.59-12.32,6.7s-5-2.21-5-2.21S75.44,329,69,308.8s-15.29-16.21-15.29-16.21" style="fill:#ebebeb"></path><path d="M102.26,451.4c-4.68-14.87-11-35.47-17.84-58.25s-13.1-43.38-17.7-58.27c-2.29-7.43-4.16-13.45-5.45-17.63-.64-2.07-1.14-3.68-1.48-4.8-.16-.53-.28-.95-.37-1.25a4.4,4.4,0,0,1-.12-.43,3.46,3.46,0,0,1,.16.41l.42,1.24c.37,1.11.89,2.72,1.57,4.77,1.35,4.14,3.26,10.15,5.6,17.59,4.68,14.87,11,35.46,17.84,58.23S98,436.4,102.59,451.3" style="fill:#e0e0e0"></path><path d="M55.49,355.62a4.37,4.37,0,0,1,.92.44c.58.31,1.4.78,2.41,1.37,2,1.19,4.77,2.9,7.77,4.85l7.65,5,2.32,1.51a4.49,4.49,0,0,1,.83.6,4.68,4.68,0,0,1-.93-.44c-.58-.31-1.4-.78-2.41-1.38-2-1.21-4.73-3-7.72-4.9l-7.68-5-2.34-1.5A4.15,4.15,0,0,1,55.49,355.62Z" style="fill:#e0e0e0"></path><path d="M78.5,368.69c-.12-.06,3.16-5.89,7.32-13s7.63-12.83,7.74-12.76-3.16,5.89-7.32,13S78.61,368.76,78.5,368.69Z" style="fill:#e0e0e0"></path><path d="M87.47,404.14a4.77,4.77,0,0,1,.71-.76l2.06-1.95c1.72-1.65,4.1-3.93,6.64-6.55s4.77-5.05,6.36-6.82c.75-.83,1.38-1.53,1.89-2.11a5.11,5.11,0,0,1,.74-.73,3.88,3.88,0,0,1-.59.85c-.41.54-1,1.29-1.78,2.21-1.53,1.84-3.72,4.32-6.27,6.94s-5,4.87-6.76,6.46c-.9.79-1.64,1.42-2.16,1.84A4.31,4.31,0,0,1,87.47,404.14Z" style="fill:#e0e0e0"></path><path d="M64.06,396.9a3.59,3.59,0,0,1,.94.18l2.53.67c2.13.58,5.07,1.42,8.3,2.37S82,402,84.09,402.64c1,.33,1.9.61,2.49.81a3.75,3.75,0,0,1,.89.36,3.62,3.62,0,0,1-1-.18c-.6-.15-1.46-.37-2.53-.67-2.13-.58-5.06-1.42-8.3-2.37s-6.15-1.85-8.25-2.52c-1.06-.33-1.91-.61-2.49-.81A3.51,3.51,0,0,1,64.06,396.9Z" style="fill:#e0e0e0"></path><path d="M68,429.2a6.75,6.75,0,0,1,1.21.24l3.25.85c2.73.73,6.5,1.78,10.65,3s7.91,2.29,10.62,3.1l3.21,1a6.07,6.07,0,0,1,1.15.42,5.11,5.11,0,0,1-1.2-.24l-3.25-.85c-2.73-.73-6.5-1.78-10.66-3s-7.91-2.28-10.62-3.1l-3.2-1A6.39,6.39,0,0,1,68,429.2Z" style="fill:#e0e0e0"></path><path d="M97.43,437.37a6.44,6.44,0,0,1,.88-1l2.52-2.56c2.11-2.17,5-5.17,8.16-8.58s5.89-6.55,7.88-8.84l2.35-2.71a6.5,6.5,0,0,1,.91-1,8,8,0,0,1-.77,1.08c-.51.67-1.27,1.63-2.23,2.81-1.92,2.35-4.64,5.54-7.78,8.95s-6.1,6.38-8.28,8.49c-1.1,1.05-2,1.89-2.62,2.46A7.24,7.24,0,0,1,97.43,437.37Z" style="fill:#e0e0e0"></path><path d="M498.7,84.57,458.13,63.63a7.18,7.18,0,0,1-8,2.3L428.3,108.2a7.19,7.19,0,0,1,3.52,6.57l15.1,7.8a7.15,7.15,0,0,1,10.84,5.59l15.39,7.94a7.16,7.16,0,0,1,6.39-3.52l21.08-40.85A7.15,7.15,0,0,1,498.7,84.57Z" style="fill:#e0e0e0"></path><rect x="440.68" y="75.16" width="48.71" height="48.71" rx="2.68" transform="translate(97.46 -202.23) rotate(27.3)" style="fill:#f5f5f5"></rect><path d="M474.15,131.74a3.6,3.6,0,0,1-1.66-.4l-11.34-5.86a.49.49,0,0,1-.22-.67.51.51,0,0,1,.68-.22l11.33,5.86a2.68,2.68,0,0,0,2,.17,2.63,2.63,0,0,0,1.54-1.31L496,91.61a2.64,2.64,0,0,0-1.13-3.56L457.12,68.59a2.64,2.64,0,0,0-3.55,1.13L434.1,107.43a2.65,2.65,0,0,0,1.14,3.55l12,6.2a.5.5,0,1,1-.46.89l-12-6.2a3.64,3.64,0,0,1-1.56-4.9l19.46-37.71a3.64,3.64,0,0,1,4.9-1.56l37.71,19.46a3.68,3.68,0,0,1,1.8,2.13,3.63,3.63,0,0,1-.24,2.78l-19.46,37.7a3.62,3.62,0,0,1-2.13,1.8A3.52,3.52,0,0,1,474.15,131.74Z" style="fill:#ebebeb"></path><path d="M452.7,93.23a4.63,4.63,0,0,1,6.44-2A4.5,4.5,0,0,1,461.52,94l-.84.27a3.63,3.63,0,0,0-1.91-2.22,3.82,3.82,0,1,0-3.5,6.78,3.59,3.59,0,0,0,2.92.26l.27.84a4.5,4.5,0,0,1-3.63-.35A4.63,4.63,0,0,1,452.7,93.23Z" style="fill:#e0e0e0"></path><path d="M468.9,100c-.9,1.74-2.71,2.14-4.79,1.07l-2.2-1.14-1.33,2.59-.86-.45,4.22-8.18L467,95.43C469.08,96.51,469.8,98.21,468.9,100Zm-.87-.44c.68-1.31.2-2.51-1.44-3.35L464.42,95l-2.11,4.1,2.17,1.12C466.12,101.1,467.37,100.8,468,99.52Z" style="fill:#e0e0e0"></path><path d="M469.78,102.8l2.42-4.69.86.45-2.4,4.65c-1,1.94-.55,3.3,1,4.12s3,.41,4-1.53l2.41-4.65.84.43-2.42,4.69c-1.21,2.35-3.1,2.91-5.2,1.83S468.57,105.15,469.78,102.8Z" style="fill:#e0e0e0"></path><polygon points="688.94 139.98 690.73 171.78 682.07 185.77 673.59 294.44 662.26 293.78 672.01 186.6 666.43 170.31 672.65 138.91 688.94 139.98" style="fill:#ebebeb"></polygon><path d="M690.13,299l-.73,11.13s-4.51,1.52-4.64,5.68,3.7,7,3.7,7l-9.81,110.36a19.93,19.93,0,0,1-21.88,18.07l-5.89-.6a19.93,19.93,0,0,1-17.83-21.48l9.17-110.21s4.66-2.27,3.89-7.05-3.54-6.05-3.54-6.05l1.13-10.56a7.42,7.42,0,0,1,7.95-6.62l31.65,2.45A7.42,7.42,0,0,1,690.13,299Z" style="fill:#e0e0e0"></path><path d="M666.15,433.91l8.53-102.58a3.77,3.77,0,0,1,4.06-3.43h0a3.76,3.76,0,0,1,3.43,4.06l-8.54,102.58a3.76,3.76,0,0,1-4,3.43h0A3.75,3.75,0,0,1,666.15,433.91Z" style="fill:#f5f5f5"></path><path d="M652.61,432.79l8.54-102.58a3.75,3.75,0,0,1,4.05-3.43h0a3.74,3.74,0,0,1,3.43,4.05L660.1,433.41a3.76,3.76,0,0,1-4.06,3.43h0A3.76,3.76,0,0,1,652.61,432.79Z" style="fill:#f5f5f5"></path><path d="M638.1,431.58,646.64,329a3.75,3.75,0,0,1,4.05-3.43h0a3.74,3.74,0,0,1,3.43,4.05L645.59,432.2a3.76,3.76,0,0,1-4.06,3.43h0A3.75,3.75,0,0,1,638.1,431.58Z" style="fill:#f5f5f5"></path><path d="M689.4,310.1c0,.14-10.5-.72-23.42-1.92s-23.38-2.3-23.36-2.44,10.49.72,23.41,1.92S689.41,310,689.4,310.1Z" style="fill:#ebebeb"></path><path d="M688.44,322.86c0,.15-10.37-.64-23.13-1.75s-23.1-2.13-23.09-2.28,10.37.65,23.14,1.76S688.46,322.72,688.44,322.86Z" style="fill:#ebebeb"></path><path d="M648.15,318.64a18,18,0,0,1,.6-1.75,13.07,13.07,0,0,0-.24-8.67,15.19,15.19,0,0,1-.69-1.72,4.5,4.5,0,0,1,1,1.58,11.36,11.36,0,0,1,.25,8.93A4.32,4.32,0,0,1,648.15,318.64Z" style="fill:#ebebeb"></path><path d="M652.78,318.47c-.15,0,.35-2.47.53-5.51s0-5.52.18-5.53a22.3,22.3,0,0,1-.71,11Z" style="fill:#ebebeb"></path><path d="M656.79,319.19a32.11,32.11,0,0,1,.32-5.73,31.09,31.09,0,0,1,.84-5.67,32.09,32.09,0,0,1-.32,5.73A31.09,31.09,0,0,1,656.79,319.19Z" style="fill:#ebebeb"></path><path d="M662.27,319.43a39.7,39.7,0,0,1,.79-11.16,39.11,39.11,0,0,1-.27,5.59A41.72,41.72,0,0,1,662.27,319.43Z" style="fill:#ebebeb"></path><path d="M666.92,319.35a10.58,10.58,0,0,1-.48-5.24,10.7,10.7,0,0,1,1.61-5,49.31,49.31,0,0,0-1.1,5.07A45.63,45.63,0,0,0,666.92,319.35Z" style="fill:#ebebeb"></path><path d="M672.9,320.89a11.8,11.8,0,0,1-.75-5.82,11.94,11.94,0,0,1,1.66-5.64,38.07,38.07,0,0,0-1.14,5.68A41.24,41.24,0,0,0,672.9,320.89Z" style="fill:#ebebeb"></path><path d="M677.6,319a9.07,9.07,0,0,1,1.4-9,23.92,23.92,0,0,0-1.38,4.37A23.65,23.65,0,0,0,677.6,319Z" style="fill:#ebebeb"></path><path d="M683.74,322.64a4.18,4.18,0,0,1-1.25-1.47,9.43,9.43,0,0,1-.44-9,4,4,0,0,1,1.1-1.58c.07.05-.34.66-.76,1.73a10.33,10.33,0,0,0,.42,8.69C683.34,322,683.8,322.58,683.74,322.64Z" style="fill:#ebebeb"></path><polygon points="177.72 69.68 187.21 69.13 204.53 43.01 250.15 73.27 204.28 142.43 152.77 108.27 167.66 85.83 173.54 89.73 180.08 79.87 173.74 75.67 177.72 69.68" style="fill:#ebebeb"></polygon><path d="M205.52,127.79c-.07.12-8.55-5.36-18.92-12.24S167.89,103,168,102.88s8.55,5.36,18.92,12.24S205.6,127.67,205.52,127.79Z" style="fill:#e0e0e0"></path><path d="M187.14,95l2.22-1.4a8,8,0,0,0,3,3.69c1.56,1,2.55.94,3,.24,1.42-2.14-6.2-5.08-3.38-9.32,1.29-1.94,3.93-2.52,7.18-.37a9.27,9.27,0,0,1,3.29,3.65l-2.15,1.46a7.88,7.88,0,0,0-2.57-3c-1.57-1-2.56-.85-3-.13-1.39,2.11,6.22,5.06,3.43,9.26-1.27,1.91-3.93,2.49-7.2.32A9.76,9.76,0,0,1,187.14,95Z" style="fill:#e0e0e0"></path><path d="M205.28,92.16l5.19,3.44c3.74,2.48,4.81,6.43,2.52,9.89s-6.36,4-10.1,1.54l-5.19-3.45Zm-1.08,12.61c2.27,1.51,4.66,1.14,6.11-1s.86-4.53-1.41-6l-2.41-1.61-4.7,7.09Z" style="fill:#e0e0e0"></path><g style="opacity:0.4"><rect x="200.17" y="49.45" width="2.74" height="17.78" transform="translate(65.84 -101.68) rotate(33.56)" style="fill:#fff"></rect></g><g style="opacity:0.4"><rect x="204.16" y="52.1" width="2.74" height="17.78" transform="translate(67.97 -103.45) rotate(33.56)" style="fill:#fff"></rect></g><g style="opacity:0.4"><rect x="208.15" y="54.74" width="2.74" height="17.78" transform="translate(70.1 -105.21) rotate(33.56)" style="fill:#fff"></rect></g><g style="opacity:0.4"><rect x="212.14" y="57.39" width="2.74" height="17.78" transform="translate(72.22 -106.97) rotate(33.56)" style="fill:#fff"></rect></g><g style="opacity:0.4"><rect x="216.13" y="60.04" width="2.74" height="17.78" transform="translate(74.35 -108.74) rotate(33.56)" style="fill:#fff"></rect></g><g style="opacity:0.4"><rect x="220.12" y="62.68" width="2.74" height="17.78" transform="translate(76.48 -110.5) rotate(33.56)" style="fill:#fff"></rect></g><g style="opacity:0.4"><rect x="224.11" y="65.33" width="2.74" height="17.78" transform="translate(78.61 -112.27) rotate(33.56)" style="fill:#fff"></rect></g><g style="opacity:0.4"><rect x="228.1" y="67.97" width="2.74" height="17.78" transform="translate(80.73 -114.03) rotate(33.56)" style="fill:#fff"></rect></g><g style="opacity:0.4"><rect x="232.09" y="70.62" width="2.74" height="17.78" transform="translate(82.86 -115.8) rotate(33.56)" style="fill:#fff"></rect></g><g style="opacity:0.4"><rect x="236.08" y="73.27" width="2.74" height="17.78" transform="translate(84.99 -117.56) rotate(33.56)" style="fill:#fff"></rect></g></g><g id="freepik--Floor--inject-125"><path d="M714.28,451.72c0,.15-151.92.26-339.26.26s-339.3-.11-339.3-.26,151.88-.26,339.3-.26S714.28,451.58,714.28,451.72Z" style="fill:#263238"></path></g><g id="freepik--Device--inject-125"><path d="M622.34,96.48,501.63,96.4a26.3,26.3,0,0,0-26.31,26.3l-.06,302.63a26.3,26.3,0,0,0,26.28,26.3l120.71.07a26.29,26.29,0,0,0,26.31-26.29l.06-302.63A26.28,26.28,0,0,0,622.34,96.48Zm-60.49,54.06a2.15,2.15,0,1,1,2.15-2.15A2.14,2.14,0,0,1,561.85,150.54Zm.09-8.66a8.74,8.74,0,1,1,8.74-8.73A8.74,8.74,0,0,1,561.94,141.88Z" style="fill:#263238"></path><path d="M568.32,168.35c0,2.88,0,5.21-.09,5.21s-.09-2.33-.09-5.21,0-5.21.09-5.21S568.32,165.48,568.32,168.35Z"></path><path d="M622.22,108l-23.41,0-68.35,0H501.74a18.4,18.4,0,0,0-18.42,18.41l-.06,295.39a18.42,18.42,0,0,0,18.4,18.42l120.48.07a18.41,18.41,0,0,0,18.42-18.41l.06-295.39A18.41,18.41,0,0,0,622.22,108Zm-60.37,42.56a2.15,2.15,0,1,1,2.15-2.15A2.14,2.14,0,0,1,561.85,150.54Zm.09-8.66a8.74,8.74,0,1,1,8.74-8.73A8.74,8.74,0,0,1,561.94,141.88Z" style="fill:#455a64"></path><path d="M635.52,402.7H488.26V192.57H635.52Zm-146.26-1H634.52V193.57H489.26Z" style="fill:#263238"></path><path d="M623.66,430.27s.18,0,.52,0l.64,0,.87-.15a11.68,11.68,0,0,0,2.38-.71,12.65,12.65,0,0,0,2.89-1.79,11.31,11.31,0,0,0,4-8.27c0-3.74-.06-8.05-.09-12.86l.15.15-134.82.11H488.76l.26-.26c0,2.69,0,5.36.05,8q0,2,0,4a12.48,12.48,0,0,0,.51,3.81,11.42,11.42,0,0,0,4.47,6A11.81,11.81,0,0,0,501.2,430l29,0,48.83.06,32.69.08,8.85.05,2.3,0,.78,0-.78,0-2.3,0-8.85,0-32.69.08-48.83.06-29,0a12.31,12.31,0,0,1-7.4-2,11.89,11.89,0,0,1-4.68-6.23,12.91,12.91,0,0,1-.54-3.95l0-4q0-4-.05-8v-.26h11.7l134.82.11h.15v.15c0,4.81.06,9.11,0,12.86a11.33,11.33,0,0,1-4.13,8.39,11.31,11.31,0,0,1-5.36,2.47l-.88.12-.64,0Z" style="fill:#263238"></path><path d="M622.58,113.8H501.2a12.44,12.44,0,0,0-12.44,12.44v60.41L635,186.16V126.24A12.44,12.44,0,0,0,622.58,113.8Zm-47.49,27.34c-1.13,4.17-3.42,9.08-7,15.29-.85,1.51-2.65,4.72-4.8,4.68s-3.94-2.62-5.29-4.36c-3.31-4.24-6.36-8.78-8.09-13.88a26.17,26.17,0,0,1,.48-16.7c1.52-4,5.7-8.24,12.77-8.24C576,117.93,576.5,136,575.09,141.14Z" style="fill:none"></path><path d="M575.09,141.14s.08-.38.19-1.1a25.6,25.6,0,0,0,.24-3.18,33.12,33.12,0,0,0-.31-5,24.89,24.89,0,0,0-1.74-6.41,12.3,12.3,0,0,0-5.08-6c-2.51-1.43-5.8-1.54-8.93-.79a13,13,0,0,0-4.47,2.07,12.47,12.47,0,0,0-3.45,3.8,17.55,17.55,0,0,0-1.82,5,27.3,27.3,0,0,0-.63,5.52,24.7,24.7,0,0,0,.51,5.53,25.47,25.47,0,0,0,1.75,5.11,49.67,49.67,0,0,0,5.27,8.79c1,1.32,2,2.6,2.91,3.81a6.48,6.48,0,0,0,3.43,2.58,2.49,2.49,0,0,0,1.88-.48,7.08,7.08,0,0,0,1.43-1.41,24.12,24.12,0,0,0,2.07-3.27,91.58,91.58,0,0,0,5.27-10.51c.53-1.28.89-2.3,1.12-3l.26-.79a1.36,1.36,0,0,1,.1-.27,1.17,1.17,0,0,1-.05.28c0,.18-.11.46-.21.81-.2.7-.53,1.74-1,3a84.65,84.65,0,0,1-5.14,10.61,24.25,24.25,0,0,1-2.07,3.34,7.21,7.21,0,0,1-1.52,1.5,2.88,2.88,0,0,1-2.18.56,6.84,6.84,0,0,1-3.71-2.71c-1-1.23-2-2.49-2.94-3.82a48.85,48.85,0,0,1-5.36-8.86,25.81,25.81,0,0,1-1.78-5.21,24.64,24.64,0,0,1-.53-5.64,27.59,27.59,0,0,1,.64-5.63,22.18,22.18,0,0,1,.76-2.68,12.51,12.51,0,0,1,1.13-2.5,13.12,13.12,0,0,1,3.6-4,13.83,13.83,0,0,1,4.64-2.13,12.87,12.87,0,0,1,9.26.88,12.67,12.67,0,0,1,5.21,6.23,24.86,24.86,0,0,1,1.69,6.52,31.19,31.19,0,0,1,.22,5.08,20.91,20.91,0,0,1-.34,3.2c-.08.36-.14.63-.19.81A1.36,1.36,0,0,1,575.09,141.14Z" style="fill:#263238"></path><path d="M622.58,113.8s.48,0,1.42.06a12.57,12.57,0,0,1,4,1.12,12.79,12.79,0,0,1,2.59,1.63,13.81,13.81,0,0,1,2.47,2.74,12.39,12.39,0,0,1,1.72,3.94,19.23,19.23,0,0,1,.37,4.87c0,13.78,0,33.64.09,58v.2H635L501,186.87l-12.2,0h-.26v-.26c0-14.05,0-27.73,0-40.92q0-9.9,0-19.4a12.69,12.69,0,0,1,11.59-12.71c24.18-.09,45.81,0,64,0l42.86.08,11.61,0,3,0,1,0-1,0-3,0-11.61.05-42.86.08-63.92.11A12.21,12.21,0,0,0,489,126.33v19.4c0,13.19,0,26.87,0,40.92l-.26-.26,12.2,0L635,186l-.2.21c0-24.36.06-44.22.08-58a18.74,18.74,0,0,0-.34-4.82,12.14,12.14,0,0,0-1.67-3.89,13,13,0,0,0-2.42-2.72,12.34,12.34,0,0,0-2.54-1.64,12.91,12.91,0,0,0-3.94-1.17c-.46-.06-.82-.06-1-.08Z" style="fill:#263238"></path><rect x="462.67" y="263.85" width="150.02" height="186.63" rx="5.17" style="fill:#263238"></rect><path d="M612.69,279.33c0,.14-33.65.26-75.15.26s-75.16-.12-75.16-.26,33.65-.26,75.16-.26S612.69,279.18,612.69,279.33Z" style="fill:#455a64"></path><path d="M504.66,279.12a53.45,53.45,0,0,1-.26-7.52,53.54,53.54,0,0,1,.26-7.53,55.42,55.42,0,0,1,.26,7.53A55.33,55.33,0,0,1,504.66,279.12Z" style="fill:#455a64"></path><path d="M561.42,279.33a52.14,52.14,0,0,1-.26-7.3,51.93,51.93,0,0,1,.26-7.29,50.17,50.17,0,0,1,.26,7.29A50.37,50.37,0,0,1,561.42,279.33Z" style="fill:#455a64"></path><rect x="578.48" y="263.85" width="3.88" height="12.22" style="fill:#e0e0e0"></rect><rect x="584.51" y="263.85" width="3.88" height="12.22" style="fill:#e0e0e0"></rect><rect x="590.5" y="263.85" width="3.88" height="12.22" style="fill:#e0e0e0"></rect><polygon points="546.95 330.3 528.25 358.94 540.4 358.94 532.16 384.03 555.68 351.5 543.15 351.5 546.95 330.3" style="fill:#e0e0e0"></polygon><path d="M542,401.13a44,44,0,1,1,44-44A44,44,0,0,1,542,401.13Zm0-86.93a43,43,0,1,0,43,43A43,43,0,0,0,542,314.2Z" style="fill:#e0e0e0"></path><path d="M497.13,119.74h-23.4a5.81,5.81,0,0,0-5.69,5.93v4.25a5.81,5.81,0,0,1-5.68,5.94l-45.62,0a5.81,5.81,0,0,1-5.68-5.94v-4.25a5.82,5.82,0,0,0-5.69-5.94H376.66a18.42,18.42,0,0,0-18.43,18.41v54.07l12.49,12.93v75.75H358.2l0,152.64a18.42,18.42,0,0,0,18.41,18.42l120.47.07a18.4,18.4,0,0,0,18.43-18.41l.06-295.39A18.42,18.42,0,0,0,497.13,119.74Zm-123,10.15a3.4,3.4,0,1,1-3.39,3.4A3.4,3.4,0,0,1,374.1,129.89Zm-2.81,63.9a2.08,2.08,0,1,1,2.08-2.08A2.08,2.08,0,0,1,371.29,193.79Zm9.78,241.26a4.43,4.43,0,1,1-1.36-6.12A4.43,4.43,0,0,1,381.07,435.05Zm70-263.75H427.18V147.42h23.88ZM500,436.2a4.43,4.43,0,1,1-1.36-6.11A4.44,4.44,0,0,1,500,436.2Zm2.7-268.33a3.17,3.17,0,1,1,3.17-3.17A3.17,3.17,0,0,1,502.65,167.87Z" style="fill:#FFC100"></path><rect x="431.18" y="135.83" width="2.69" height="6.74" style="fill:#f5f5f5"></rect><rect x="437.75" y="135.83" width="2.69" height="6.74" style="fill:#f5f5f5"></rect><rect x="444.32" y="135.83" width="2.69" height="6.74" style="fill:#f5f5f5"></rect><g style="opacity:0.30000000000000004"><rect x="382.45" y="119.67" width="18.89" height="45.03"></rect></g><g style="opacity:0.30000000000000004"><rect x="464.46" y="153.57" width="31.81" height="47.32"></rect></g><g style="opacity:0.30000000000000004"><rect x="444.85" y="233.13" width="12.42" height="12.42"></rect></g><g style="opacity:0.30000000000000004"><rect x="399.29" y="213.49" width="8.32" height="8.32"></rect></g><g style="opacity:0.30000000000000004"><rect x="399.29" y="201.56" width="8.32" height="8.32"></rect></g><g style="opacity:0.30000000000000004"><rect x="394.96" y="189.63" width="16.97" height="8.32"></rect></g><g style="opacity:0.30000000000000004"><rect x="409.1" y="225.65" width="18.08" height="35.07"></rect></g><g style="opacity:0.1"><polygon points="464.46 200.89 482.86 225.65 482.86 243.19 457.27 243.19 457.27 245.55 480.37 245.55 480.37 363.67 496.27 363.67 496.27 223.58 496.27 200.89 464.46 200.89"></polygon></g><g style="opacity:0.1"><polygon points="394.96 189.63 418.99 182.39 434.07 187.6 434.07 230.32 427.18 242.52 427.18 225.65 427.18 191.71 418.14 186.52 411.93 189.63 394.96 189.63"></polygon></g><rect x="480.41" y="385.49" width="22.11" height="2.85" style="fill:#f5f5f5"></rect><rect x="480.41" y="392.32" width="22.11" height="2.85" style="fill:#f5f5f5"></rect><g style="opacity:0.30000000000000004"><rect x="389.25" y="353.3" width="42.64" height="61.83"></rect></g><path d="M395.26,351.1c.15,0,.26.44.26,1s-.11,1-.26,1-.26-.44-.26-1S395.12,351.1,395.26,351.1Z" style="fill:#fff"></path><path d="M403.41,351.1c.15,0,.26.44.26,1s-.11,1-.26,1-.26-.44-.26-1S403.27,351.1,403.41,351.1Z" style="fill:#fff"></path><path d="M411.57,351.1c.14,0,.26.44.26,1s-.12,1-.26,1-.27-.44-.27-1S411.42,351.1,411.57,351.1Z" style="fill:#fff"></path><path d="M419.72,351.1c.14,0,.26.44.26,1s-.12,1-.26,1-.26-.44-.26-1S419.57,351.1,419.72,351.1Z" style="fill:#fff"></path><path d="M427.87,351.1c.14,0,.26.44.26,1s-.12,1-.26,1-.26-.44-.26-1S427.72,351.1,427.87,351.1Z" style="fill:#fff"></path><path d="M395.26,415.39c.15,0,.26.44.26,1s-.11,1-.26,1-.26-.45-.26-1S395.12,415.39,395.26,415.39Z" style="fill:#fff"></path><path d="M403.41,415.39c.15,0,.26.44.26,1s-.11,1-.26,1-.26-.45-.26-1S403.27,415.39,403.41,415.39Z" style="fill:#fff"></path><path d="M411.57,415.39c.14,0,.26.44.26,1s-.12,1-.26,1-.27-.45-.27-1S411.42,415.39,411.57,415.39Z" style="fill:#fff"></path><path d="M419.72,415.39c.14,0,.26.44.26,1s-.12,1-.26,1-.26-.45-.26-1S419.57,415.39,419.72,415.39Z" style="fill:#fff"></path><path d="M427.87,415.39c.14,0,.26.44.26,1s-.12,1-.26,1-.26-.45-.26-1S427.72,415.39,427.87,415.39Z" style="fill:#fff"></path><g style="opacity:0.30000000000000004"><rect x="437.27" y="339.11" width="16.35" height="23.71"></rect></g><path d="M439.57,338.26c.15,0,.26.17.26.38s-.11.38-.26.38-.26-.17-.26-.38S439.43,338.26,439.57,338.26Z" style="fill:#fff"></path><path d="M442.7,338.26c.14,0,.26.17.26.38s-.12.38-.26.38-.26-.17-.26-.38S442.55,338.26,442.7,338.26Z" style="fill:#fff"></path><path d="M445.82,338.26c.15,0,.26.17.26.38s-.11.38-.26.38-.26-.17-.26-.38S445.68,338.26,445.82,338.26Z" style="fill:#fff"></path><path d="M449,338.26c.14,0,.26.17.26.38s-.12.38-.26.38-.26-.17-.26-.38S448.8,338.26,449,338.26Z" style="fill:#fff"></path><path d="M452.07,338.26c.15,0,.26.17.26.38s-.11.38-.26.38-.26-.17-.26-.38S451.93,338.26,452.07,338.26Z" style="fill:#fff"></path><path d="M439.57,362.91c.15,0,.26.17.26.38s-.11.38-.26.38-.26-.17-.26-.38S439.43,362.91,439.57,362.91Z" style="fill:#fff"></path><path d="M442.7,362.91c.14,0,.26.17.26.38s-.12.38-.26.38-.26-.17-.26-.38S442.55,362.91,442.7,362.91Z" style="fill:#fff"></path><path d="M445.82,362.91c.15,0,.26.17.26.38s-.11.38-.26.38-.26-.17-.26-.38S445.68,362.91,445.82,362.91Z" style="fill:#fff"></path><path d="M449,362.91c.14,0,.26.17.26.38s-.12.38-.26.38-.26-.17-.26-.38S448.8,362.91,449,362.91Z" style="fill:#fff"></path><path d="M452.07,362.91c.15,0,.26.17.26.38s-.11.38-.26.38-.26-.17-.26-.38S451.93,362.91,452.07,362.91Z" style="fill:#fff"></path><polygon points="358.2 340.89 424.17 340.89 424.17 343.99 358.18 343.99 358.2 340.89" style="fill:#f5f5f5"></polygon><path d="M447.94,225.65a1.55,1.55,0,1,1-1.54-1.54A1.54,1.54,0,0,1,447.94,225.65Z" style="fill:#f5f5f5"></path><path d="M438.81,240.88a1.54,1.54,0,1,1-1.54-1.54A1.54,1.54,0,0,1,438.81,240.88Z" style="fill:#f5f5f5"></path><path d="M435.73,251.37a1.54,1.54,0,1,1,1.65,1.43A1.54,1.54,0,0,1,435.73,251.37Z" style="fill:#f5f5f5"></path><rect x="382.45" y="164.7" width="18.89" height="0.92" style="fill:#f5f5f5"></rect><rect x="382.45" y="137.18" width="2.6" height="9.5" style="fill:#f5f5f5"></rect><rect x="395.26" y="228.58" width="1.6" height="65.28" style="fill:#f5f5f5"></rect><g style="opacity:0.1"><polygon points="480.41 386.92 480.41 405.11 448.95 432.67 419.72 432.67 431.89 415.13 389.25 415.13 413.68 437.1 453.62 437.1 485.81 408.34 502.51 393.75 502.51 385.49 480.41 386.92"></polygon></g><path d="M348.46,452l-120.72-.07a26.29,26.29,0,0,1-26.28-26.3L201.52,123a26.29,26.29,0,0,1,26.31-26.29l120.72.07A26.3,26.3,0,0,1,374.83,123l-.06,302.63A26.3,26.3,0,0,1,348.46,452Z" style="fill:#455a64"></path><path d="M348.42,107.44H325a5.82,5.82,0,0,0-5.68,5.94v4.24a5.82,5.82,0,0,1-5.69,5.94l-45.62,0a5.82,5.82,0,0,1-5.68-5.94v-4.25a5.81,5.81,0,0,0-5.68-5.94h-8.23l-20.48,0a18.42,18.42,0,0,0-18.43,18.42l-.06,295.39a18.42,18.42,0,0,0,18.41,18.42l120.47.07a18.43,18.43,0,0,0,18.43-18.41l.05-295.4A18.42,18.42,0,0,0,348.42,107.44Z" style="fill:#ebebeb"></path><path d="M238.63,119.5h-23.4a5.81,5.81,0,0,0-5.69,5.93v4.25a5.81,5.81,0,0,1-5.68,5.94l-45.62,0a5.81,5.81,0,0,1-5.68-5.94v-4.25a5.82,5.82,0,0,0-5.68-5.94H118.16a18.42,18.42,0,0,0-18.43,18.41l0,295.39a18.4,18.4,0,0,0,18.4,18.42l120.47.07A18.4,18.4,0,0,0,257,433.31L257,137.92A18.42,18.42,0,0,0,238.63,119.5Z" style="fill:#fff"></path><path d="M238.63,119.5l.63,0a14.31,14.31,0,0,1,1.87.14,17.54,17.54,0,0,1,6.91,2.39,17.93,17.93,0,0,1,4.2,3.4,18.62,18.62,0,0,1,3.51,5.5,19.21,19.21,0,0,1,1.38,7.48q0,4.08,0,8.68c0,24.54,0,60,.06,103.91s0,96.1,0,154.1v27.6a20.16,20.16,0,0,1-.71,5.62,18.55,18.55,0,0,1-2.35,5.19,20.2,20.2,0,0,1-3.84,4.26,18.64,18.64,0,0,1-10.63,4.13c-3.87.11-7.7,0-11.58.05H204.67l-48.14,0-24.62,0H119.48a19.42,19.42,0,0,1-12-3.32,18.83,18.83,0,0,1-7.31-10.08,20,20,0,0,1-.76-6.23V401.45q0-24.45,0-48.14c0-31.57,0-62,0-91s0-56.57,0-82.36q0-19.35,0-37.33v-4.47c0-.74.07-1.49.11-2.23s.18-1.48.37-2.2a18.86,18.86,0,0,1,3.88-7.8,18.63,18.63,0,0,1,15-6.65h27.56a5.9,5.9,0,0,1,3.62,1,6.1,6.1,0,0,1,2.25,3,9.84,9.84,0,0,1,.38,3.64v1.79a14.6,14.6,0,0,0,.05,1.76,5.82,5.82,0,0,0,1.38,3.08,5.45,5.45,0,0,0,2.81,1.75,6.59,6.59,0,0,0,1.66.16H167l24.28,0H202c.84,0,1.7,0,2.5,0a5.41,5.41,0,0,0,2.26-.79A5.84,5.84,0,0,0,209.3,131a9.89,9.89,0,0,0,.14-2.24c0-.74,0-1.48,0-2.2a11.87,11.87,0,0,1,.1-2.15,6.08,6.08,0,0,1,.69-2,5.8,5.8,0,0,1,2.94-2.6,9.27,9.27,0,0,1,3.66-.39l11.94,0,7.35,0,2.5,0-2.5,0-7.35,0-11.94,0a8.87,8.87,0,0,0-3.6.39,5.62,5.62,0,0,0-2.84,2.53,5.72,5.72,0,0,0-.67,1.91,12.32,12.32,0,0,0-.09,2.12v2.2a10.36,10.36,0,0,1-.14,2.28,6,6,0,0,1-2.67,3.85,5.61,5.61,0,0,1-2.34.83c-.85.08-1.68,0-2.53,0H158.62a6,6,0,0,1-1.73-.17,5.77,5.77,0,0,1-3-1.84,6.12,6.12,0,0,1-1.45-3.24,13.65,13.65,0,0,1-.06-1.8v-1.79a9.69,9.69,0,0,0-.36-3.53,5.75,5.75,0,0,0-2.14-2.8,5.58,5.58,0,0,0-3.43-1H118.91a19.07,19.07,0,0,0-8,1.53,18.72,18.72,0,0,0-6.69,5,18.49,18.49,0,0,0-3.78,7.64c-.19.7-.24,1.43-.37,2.15s-.09,1.45-.1,2.19v4.47q0,18,0,37.33c0,25.79,0,53.35,0,82.36v91q0,23.67,0,48.14v30.84a19.74,19.74,0,0,0,.74,6.08,18.3,18.3,0,0,0,7.1,9.8,18.87,18.87,0,0,0,11.7,3.22h12.43l24.62,0,48.14,0,23.45,0c3.87,0,7.74.06,11.55-.05a18.18,18.18,0,0,0,10.35-4,19.07,19.07,0,0,0,3.73-4.14,18,18,0,0,0,2.29-5.05,18.8,18.8,0,0,0,.69-5.49c0-1.86,0-3.72,0-5.58q0-11.14,0-22c0-58,.06-110.23.08-154.1s.08-79.37.1-103.91c0-3.07,0-6,0-8.68A18.94,18.94,0,0,0,255.6,131a18.16,18.16,0,0,0-3.46-5.47,17.58,17.58,0,0,0-4.16-3.4,17.37,17.37,0,0,0-6.86-2.42,12.07,12.07,0,0,0-1.86-.17Z" style="fill:#263238"></path><path d="M242.19,149.33c0,.08-3,.17-6.79.2s-6.8,0-6.8-.09,3-.17,6.79-.2S242.19,149.25,242.19,149.33Z" style="fill:#263238"></path><path d="M242.22,152.81c0,.08-3,.17-6.8.2s-6.79,0-6.8-.09,3-.17,6.8-.2S242.22,152.73,242.22,152.81Z" style="fill:#263238"></path><path d="M242.25,156.29c0,.07-3,.16-6.8.2s-6.8,0-6.8-.09,3-.17,6.8-.2S242.25,156.21,242.25,156.29Z" style="fill:#263238"></path><path d="M118.52,160.26l.29,0,.78,0,2.91-.07-.08.08c0-.64,0-1.34,0-2.1,0-.39,0-.76,0-1.21a1.13,1.13,0,0,1,1-.9c.47,0,.88,0,1.39,0a1.12,1.12,0,0,1,1,1.12c0,1,0,2,0,3.07l-.14-.14,3.66,0-.14.14c0-1.48,0-3,0-4.56,0-.39,0-.78,0-1.17a1.18,1.18,0,0,0-.51-.86L127,152c-.53-.52-1-1-1.55-1.52l-.75-.74a1.71,1.71,0,0,0-.75-.57,1,1,0,0,0-.84.16c-.23.19-.46.45-.69.67l-1.31,1.33c-.83.86-1.69,1.64-2.31,2.38a2.55,2.55,0,0,0-.19,1.37v1.29c0,.79,0,1.48,0,2.08s0,1,0,1.33a2.78,2.78,0,0,1,0,.48s0-.15,0-.44,0-.79,0-1.31,0-1.3,0-2.1c0-.41,0-.85,0-1.31,0-.24,0-.48,0-.72a1.53,1.53,0,0,1,.2-.77c.68-.83,1.49-1.57,2.32-2.45l1.3-1.34c.24-.23.43-.46.71-.7a1.25,1.25,0,0,1,1.06-.2,1.91,1.91,0,0,1,.88.62l.75.74c.51.5,1,1,1.55,1.52l1.61,1.57a3.67,3.67,0,0,1,.41.45,1.22,1.22,0,0,1,.19.62c0,.38,0,.77,0,1.16,0,1.57,0,3.09,0,4.57v.14h-.14l-3.67,0h-.13v-.13c0-1.06,0-2.09,0-3.07a.89.89,0,0,0-.74-.89c-.42,0-.92,0-1.33,0a.89.89,0,0,0-.79.71c0,.37,0,.79,0,1.17v2.19h-.08l-3,0h-1Z" style="fill:#263238"></path><rect x="113.06" y="178.64" width="128.42" height="23.36" rx="9.85" style="fill:#f5f5f5"></rect><path d="M231.63,202l.74-.06a11.44,11.44,0,0,0,2.12-.41,10.33,10.33,0,0,0,3.09-1.63,9.59,9.59,0,0,0,2.92-3.71,9.34,9.34,0,0,0,.78-2.72,26.77,26.77,0,0,0,.09-3.15,20.93,20.93,0,0,0-.16-3.42,9.56,9.56,0,0,0-1.27-3.42,9.74,9.74,0,0,0-6.48-4.51,28.39,28.39,0,0,0-4.47-.17h-4.74l-101.33.07a9.64,9.64,0,0,0-9.58,8.81c-.08,1.17,0,2.4,0,3.58a11.17,11.17,0,0,0,.36,3.48,9.7,9.7,0,0,0,4,5.44,9.42,9.42,0,0,0,3.11,1.33,14.08,14.08,0,0,0,3.38.25h20l45.56.05,30.71.08,8.35,0,2.17,0,.74,0-.74,0-2.17,0-8.35,0-30.71.07-45.56.05h-20a14.67,14.67,0,0,1-3.48-.26,9.85,9.85,0,0,1-3.27-1.39,10.16,10.16,0,0,1-4.17-5.7,11.64,11.64,0,0,1-.39-3.61c0-1.2,0-2.37,0-3.61a10.12,10.12,0,0,1,10.06-9.26l101.33.07H229a27.21,27.21,0,0,1,4.53.19,10,10,0,0,1,7.94,8.19,21.54,21.54,0,0,1,.13,3.46,25.45,25.45,0,0,1-.11,3.18,9.3,9.3,0,0,1-.81,2.77,9.65,9.65,0,0,1-3,3.75,9.59,9.59,0,0,1-5.29,2C231.88,202,231.63,202,231.63,202Z" style="fill:#263238"></path><path d="M233.61,189.77s0-.38-.22-1a4.19,4.19,0,0,0-1.55-2.22,4,4,0,1,0,0,6.45,4.21,4.21,0,0,0,1.55-2.21c.18-.64.18-1,.22-1s0,.09,0,.27a3.13,3.13,0,0,1-.08.78,4.2,4.2,0,0,1-1.53,2.44,4.38,4.38,0,0,1-4.18.69,4.44,4.44,0,0,1,0-8.37,4.38,4.38,0,0,1,4.18.69,4.2,4.2,0,0,1,1.53,2.44,3.17,3.17,0,0,1,.08.78C233.64,189.67,233.63,189.77,233.61,189.77Z" style="fill:#263238"></path><path d="M235.94,197.06a16.55,16.55,0,0,1-3.79-4.1,8.26,8.26,0,0,1,2.07,1.89A8.17,8.17,0,0,1,235.94,197.06Z" style="fill:#263238"></path><path d="M130.4,188h-2.29v-.6h5.27v.6h-2.29v5.92h-.69Z" style="fill:#e0e0e0"></path><path d="M138.09,191.66H134a1.82,1.82,0,0,0,1.93,1.71,2,2,0,0,0,1.5-.64l.37.42a2.4,2.4,0,0,1-1.89.81,2.43,2.43,0,0,1-2.57-2.5,2.37,2.37,0,0,1,2.39-2.49,2.34,2.34,0,0,1,2.38,2.49C138.1,191.52,138.09,191.59,138.09,191.66Zm-4.1-.49h3.48a1.74,1.74,0,0,0-3.48,0Z" style="fill:#e0e0e0"></path><path d="M142.43,193.91l-1.56-2-1.56,2h-.75l1.94-2.52L138.66,189h.74l1.47,1.92,1.47-1.92h.73l-1.84,2.38,2,2.52Z" style="fill:#e0e0e0"></path><path d="M146.86,193.61a1.59,1.59,0,0,1-1,.35,1.31,1.31,0,0,1-1.44-1.43v-3h-.87V189h.87v-1.07h.66V189h1.49v.56h-1.49v2.92a.79.79,0,0,0,.85.9,1.15,1.15,0,0,0,.73-.25Z" style="fill:#e0e0e0"></path><rect x="118.48" y="221.42" width="28.11" height="28.11" style="fill:#FFC100"></rect><g style="opacity:0.4"><rect x="118.48" y="221.42" width="28.11" height="28.11"></rect></g><path d="M200.66,224.25c0,.13-9.4.24-21,.24s-21-.11-21-.24,9.39-.24,21-.24S200.66,224.12,200.66,224.25Z" style="fill:#FFC100"></path><path d="M234.14,232.86c0,.14-16.9.24-37.73.24s-37.73-.1-37.73-.24,16.89-.23,37.73-.23S234.14,232.73,234.14,232.86Z" style="fill:#263238"></path><path d="M233.25,239c0,.13-16.7.24-37.29.24s-37.28-.11-37.28-.24,16.69-.24,37.28-.24S233.25,238.89,233.25,239Z" style="fill:#263238"></path><path d="M202.71,244.89c0,.13-9.86.24-22,.24s-22-.11-22-.24,9.85-.24,22-.24S202.71,244.76,202.71,244.89Z" style="fill:#263238"></path><rect x="118.48" y="268.05" width="28.11" height="28.11" style="fill:#FFC100"></rect><path d="M200.66,271.08c0,.13-9.4.24-21,.24s-21-.11-21-.24,9.39-.24,21-.24S200.66,271,200.66,271.08Z" style="fill:#FFC100"></path><path d="M234.14,279.7c0,.13-16.9.23-37.73.23s-37.73-.1-37.73-.23,16.89-.24,37.73-.24S234.14,279.56,234.14,279.7Z" style="fill:#263238"></path><path d="M233.25,285.85c0,.13-16.7.24-37.29.24s-37.28-.11-37.28-.24,16.69-.24,37.28-.24S233.25,285.72,233.25,285.85Z" style="fill:#263238"></path><path d="M202.71,291.72c0,.13-9.86.24-22,.24s-22-.11-22-.24,9.85-.24,22-.24S202.71,291.59,202.71,291.72Z" style="fill:#263238"></path><rect x="118.48" y="314.89" width="28.11" height="28.11" style="fill:#FFC100"></rect><path d="M200.66,317.91c0,.13-9.4.24-21,.24s-21-.11-21-.24,9.39-.24,21-.24S200.66,317.78,200.66,317.91Z" style="fill:#FFC100"></path><path d="M234.14,326.53c0,.13-16.9.24-37.73.24s-37.73-.11-37.73-.24,16.89-.24,37.73-.24S234.14,326.39,234.14,326.53Z" style="fill:#263238"></path><path d="M233.25,332.68c0,.13-16.7.24-37.29.24s-37.28-.11-37.28-.24,16.69-.24,37.28-.24S233.25,332.55,233.25,332.68Z" style="fill:#263238"></path><path d="M202.71,338.55c0,.13-9.86.24-22,.24s-22-.11-22-.24,9.85-.24,22-.24S202.71,338.42,202.71,338.55Z" style="fill:#263238"></path><rect x="118.48" y="361.72" width="28.11" height="28.11" style="fill:#FFC100"></rect><path d="M200.66,364.74c0,.13-9.4.24-21,.24s-21-.11-21-.24,9.39-.24,21-.24S200.66,364.61,200.66,364.74Z" style="fill:#455a64"></path><path d="M234.14,373.36c0,.13-16.9.24-37.73.24s-37.73-.11-37.73-.24,16.89-.24,37.73-.24S234.14,373.23,234.14,373.36Z" style="fill:#263238"></path><path d="M233.25,379.51c0,.13-16.7.24-37.29.24s-37.28-.11-37.28-.24,16.69-.24,37.28-.24S233.25,379.38,233.25,379.51Z" style="fill:#263238"></path><path d="M202.71,385.38c0,.13-9.86.24-22,.24s-22-.11-22-.24,9.85-.24,22-.24S202.71,385.25,202.71,385.38Z" style="fill:#263238"></path><rect x="118.48" y="408.55" width="28.11" height="28.11" style="fill:#e0e0e0"></rect><path d="M200.66,411.57c0,.13-9.4.24-21,.24s-21-.11-21-.24,9.39-.24,21-.24S200.66,411.44,200.66,411.57Z" style="fill:#e0e0e0"></path><path d="M234.14,420.19c0,.13-16.9.24-37.73.24s-37.73-.11-37.73-.24,16.89-.24,37.73-.24S234.14,420.06,234.14,420.19Z" style="fill:#ebebeb"></path><path d="M233.25,426.34c0,.14-16.7.24-37.29.24s-37.28-.1-37.28-.24,16.69-.24,37.28-.24S233.25,426.21,233.25,426.34Z" style="fill:#ebebeb"></path><path d="M202.71,432.21c0,.14-9.86.24-22,.24s-22-.1-22-.24,9.85-.24,22-.24S202.71,432.08,202.71,432.21Z" style="fill:#ebebeb"></path><g style="opacity:0.30000000000000004"><rect x="118.48" y="361.72" width="28.11" height="28.11"></rect></g><g style="opacity:0.30000000000000004"><rect x="118.48" y="268.05" width="28.11" height="28.11"></rect></g></g><g id="freepik--Character--inject-125"><path d="M152.34,185.35l-32.85,18.27-23.2-34.19.06-1.08c0-.59.08-1.24.15-2a7.84,7.84,0,0,1,.68-2.46,11.94,11.94,0,0,1,1.62-2.74c.68-.7.18-1.86-.68-1.71s-2.77,2-3.85,5-2.64-1.68-3.24-3.36-2.69-6.8-3.35-7c-1-.31-1.49.69-.85,2.36s2.2,6.81,1.3,7.1-3.82-8.32-3.82-8.32-.33-1.95-1.37-1.64c-1.89.55,1.9,9.47,2.28,10.3.27.59-.69.94-1,.3s-2.73-8.67-4.65-8.12c-1.48.42,3,7.36,2.65,9.33s-2.9-5.63-4.3-5.17c-.52.17-.88.37,1.18,4.51a90.77,90.77,0,0,0,4.41,8.56h0l22.94,44.83a12.29,12.29,0,0,0,15.94,5.64l30.34-13.42Z" style="fill:#ffbe9d"></path><path d="M92.33,172.84s-.36-.21-.68-.77a4.76,4.76,0,0,1-.61-2.39,4.85,4.85,0,0,1,.66-2.39c.33-.54.65-.79.69-.74a6.65,6.65,0,0,0-.06,6.29Z" style="fill:#eb996e"></path><path d="M40.39,178.14l40.57,14a3.26,3.26,0,0,0,4.15-2l10.65-30.83a3.26,3.26,0,0,0-2-4.15L58.48,143a4,4,0,0,0-3,.18l-6.5,3.16a4,4,0,0,0-2,2.34l-8.41,25.66A3,3,0,0,0,40.39,178.14Z" style="fill:#FFC100"></path><rect x="52.7" y="150.01" width="30.14" height="38.5" rx="1.86" transform="translate(-114.35 178.01) rotate(-70.93)" style="fill:#ebebeb"></rect><path d="M66.5,152.88c.14.05-2,6.46-4.68,14.33s-5,14.21-5.17,14.16,2-6.46,4.68-14.33S66.36,152.83,66.5,152.88Z" style="fill:#FFC100"></path><path d="M59.44,172.86s.13,0,.37,0l-.06.16c-.82-.18-3.21-.92-6-1.89a43.38,43.38,0,0,1-6.19-2.41,41.15,41.15,0,0,1,6.36,1.92c2.78,1,5.12,1.85,5.88,2.22l-.06.16C59.53,173,59.44,172.89,59.44,172.86Z" style="fill:#FFC100"></path><path d="M63.85,161.25a39.7,39.7,0,0,1-6.2-1.87,40.7,40.7,0,0,1-6-2.35,40,40,0,0,1,6.19,1.86A40.45,40.45,0,0,1,63.85,161.25Z" style="fill:#FFC100"></path><path d="M80.26,157.72c.14,0-2,6.44-4.66,14.29s-5,14.17-5.16,14.12,2-6.44,4.67-14.29S80.13,157.67,80.26,157.72Z" style="fill:#FFC100"></path><path d="M88.3,170.11a32.85,32.85,0,0,1-5.59-1.66,31.78,31.78,0,0,1-5.41-2.15A34,34,0,0,1,82.88,168,32.12,32.12,0,0,1,88.3,170.11Z" style="fill:#FFC100"></path><path d="M85.09,182.14a39.68,39.68,0,0,1-6-1.81A38.78,38.78,0,0,1,73.24,178a37.27,37.27,0,0,1,6,1.8A37,37,0,0,1,85.09,182.14Z" style="fill:#FFC100"></path><path d="M36.16,170.43c-.2-2.09,1.27-2.33,1.27-2.33a4.17,4.17,0,0,1,.2-1.92,2.05,2.05,0,0,1,1.47-1.35,5.68,5.68,0,0,1,.53-2.36c.49-.7,2.86-1.06,2.86-1.06v1.71l-.32.55s1.42,3.42,2.16,1.3c1-3,3-4.86,3.85-5s1.36,1,.68,1.72a11.53,11.53,0,0,0-1.62,2.74,7.45,7.45,0,0,0-.68,2.45c-.08.74-.12,1.39-.15,2l-.06,1.07,23.2,34.19,32.85-18.26,12.2,19.68L72.48,224.26a12.29,12.29,0,0,1-15.94-5.63L36.69,177.57s-2.36-4-1.91-5.63A2,2,0,0,1,36.16,170.43Z" style="fill:#ffbe9d"></path><path d="M83.86,196.16a4.55,4.55,0,0,1-.9.61c-.6.36-1.47.87-2.55,1.49-2.16,1.24-5.16,2.93-8.5,4.76l-2.12,1.16.06,0a8.88,8.88,0,0,0-2.45,7.23,14.71,14.71,0,0,0,.84,3.1,2.3,2.3,0,0,1-.46-.74,8.78,8.78,0,0,1-.72-2.31,8.9,8.9,0,0,1,.18-3.65,9.23,9.23,0,0,1,2.24-4l0,0,0,0,2.12-1.16c3.34-1.84,6.37-3.47,8.58-4.63,1.1-.58,2-1,2.62-1.35A4.29,4.29,0,0,1,83.86,196.16Z" style="fill:#eb996e"></path><path d="M40.1,167.19c-.09.11-.64-.22-1-.91S39,165,39.11,165s.26.53.52,1.11S40.2,167.08,40.1,167.19Z" style="fill:#eb996e"></path><path d="M38.43,170.89c-.11.09-.65-.41-1-1.24s-.28-1.55-.14-1.56.33.63.62,1.37S38.55,170.8,38.43,170.89Z" style="fill:#eb996e"></path><path d="M36.89,172.87c-.1.09-.61-.34-.85-1.1s-.08-1.4.06-1.38.22.58.43,1.23S37,172.77,36.89,172.87Z" style="fill:#eb996e"></path><path d="M205.14,444.83,171.23,271.4h0c-.06-.26-.13-.5-.19-.76v0h0c-5.14-20.38-9.19-25.37-9.19-25.37l-50.08,1.36c-3.93,7.06-4.43,24-4.43,24-.54,2.08,7.18,170.66,7.18,170.66l20.75-.06L141,281.33l44.79,163.78Z" style="fill:#263238"></path><path d="M154.22,275.91c0,.16-5.54,1.75-12.45,3.54s-12.56,3.11-12.6,2.94,5.53-1.75,12.44-3.54S154.17,275.75,154.22,275.91Z" style="fill:#455a64"></path><polygon points="116.48 441.2 113.21 452.14 132.58 451.91 133.54 441.2 116.48 441.2" style="fill:#FFC100"></polygon><path d="M133,450.07a12.06,12.06,0,0,1-2.82.22c-1.75,0-4.16,0-6.82,0l-6.8-.22a13.43,13.43,0,0,1-2.81-.22,12.3,12.3,0,0,1,2.82-.21c1.74-.05,4.15,0,6.81,0l6.8.22A13.26,13.26,0,0,1,133,450.07Z" style="fill:#263238"></path><path d="M124.65,441.84c.17,0,.21,1.84.08,4.09s-.36,4.06-.53,4.05-.21-1.84-.08-4.08S124.48,441.83,124.65,441.84Z" style="fill:#263238"></path><g style="opacity:0.6000000000000001"><polyline points="113.21 452.14 132.58 451.91 132.75 450.07 113.53 449.82 113.2 451.92" style="fill:#fff"></polyline></g><path d="M204.89,447.26l0-2.43-19.09.28-.08,6.61,1.18.07c5.28.25,26.85.94,30.37-.07C221.15,450.6,204.89,447.26,204.89,447.26Z" style="fill:#FFC100"></path><g style="opacity:0.6000000000000001"><path d="M192.61,451.56a6.17,6.17,0,0,0-2.47-3.78,6.8,6.8,0,0,0-4.48-1.28l0,5Z" style="fill:#fff"></path></g><g style="opacity:0.6000000000000001"><path d="M212.84,449.15s5.7,1.51,5,2.38-22.53,1-32.16.19l0-.4,25.46.13S211.72,449.2,212.84,449.15Z" style="fill:#fff"></path></g><path d="M185.4,451.31l.33,0,1,0,3.47.12c2.94.09,7,.17,11.48.16s8.53-.11,11.47-.21l3.47-.14.94-.06.33,0h-1.27l-3.48.08c-2.93.06-7,.13-11.47.14s-8.53,0-11.46-.09l-3.48-.06H185.4Z" style="fill:#263238"></path><path d="M211.16,451.72a6.92,6.92,0,0,1,.64-1.54,7.1,7.1,0,0,1,1.17-1.24,2.53,2.53,0,0,0-1.37,1.13A2.24,2.24,0,0,0,211.16,451.72Z" style="fill:#263238"></path><path d="M205.5,449.08c.06,0,.32-.27.6-.68s.45-.77.4-.8-.32.27-.6.68S205.45,449.05,205.5,449.08Z" style="fill:#263238"></path><path d="M204,448.32c0,.05.34-.14.67-.42s.56-.53.51-.58-.34.15-.67.42S203.91,448.28,204,448.32Z" style="fill:#263238"></path><path d="M203,446.65a2.45,2.45,0,0,0,1,.12,2.32,2.32,0,0,0,1-.11,4.77,4.77,0,0,0-2,0Z" style="fill:#263238"></path><path d="M202.61,445.47a2.18,2.18,0,0,0,1.12.3,2.06,2.06,0,0,0,1.15-.15,6.39,6.39,0,0,0-1.14-.07A6.23,6.23,0,0,0,202.61,445.47Z" style="fill:#263238"></path><path d="M206.14,447.53a4.25,4.25,0,0,0,1.23,0,8.9,8.9,0,0,0,1.3-.27,3.72,3.72,0,0,0,.75-.29.68.68,0,0,0,.3-.36.45.45,0,0,0-.19-.46,2.35,2.35,0,0,0-2.78.63,1.93,1.93,0,0,0-.4.76c0,.19,0,.31,0,.31a2.82,2.82,0,0,1,.55-1,2.18,2.18,0,0,1,1-.64,2.07,2.07,0,0,1,1.47.09c.19.14.12.35-.1.47a3.83,3.83,0,0,1-.69.28,8.5,8.5,0,0,1-1.26.31C206.61,447.49,206.14,447.49,206.14,447.53Z" style="fill:#263238"></path><path d="M206.46,447.58a1.11,1.11,0,0,0,.13-.79,1.75,1.75,0,0,0-.34-.83,1.24,1.24,0,0,0-1-.58.45.45,0,0,0-.37.53,1.17,1.17,0,0,0,.21.51,4.22,4.22,0,0,0,.59.69,2,2,0,0,0,.7.46s-.24-.21-.58-.57a3.9,3.9,0,0,1-.52-.68c-.17-.24-.29-.68,0-.73s.62.26.81.48a2,2,0,0,1,.35.74A3.76,3.76,0,0,1,206.46,447.58Z" style="fill:#263238"></path><path d="M185.76,446.45s.55-.05,1.41,0a6.52,6.52,0,0,1,3.09,1.17,5.72,5.72,0,0,1,1.94,2.53c.3.76.33,1.27.38,1.26a1,1,0,0,0,0-.35,5.15,5.15,0,0,0-.22-1,5.53,5.53,0,0,0-2-2.65,6.22,6.22,0,0,0-3.21-1.15,4.75,4.75,0,0,0-1.05,0A1.22,1.22,0,0,0,185.76,446.45Z" style="fill:#263238"></path><path d="M195,449.82a16.74,16.74,0,0,0,5.59,0c0-.06-1.26,0-2.8,0S195,449.75,195,449.82Z" style="fill:#263238"></path><path d="M191.25,449.82c0,.05.11.25.24.51s.2.51.26.5.1-.28-.05-.58S191.29,449.78,191.25,449.82Z" style="fill:#263238"></path><path d="M189.83,448.19c-.05.05.08.23.28.42s.4.3.44.26-.08-.23-.28-.42S189.88,448.15,189.83,448.19Z" style="fill:#263238"></path><path d="M187.8,447.45c0,.06.27.06.55.15s.49.23.54.19-.11-.28-.46-.39S187.78,447.4,187.8,447.45Z" style="fill:#263238"></path><path d="M186.36,447.11c0,.05.09.14.25.2s.31.06.33,0-.09-.15-.25-.2S186.39,447.05,186.36,447.11Z" style="fill:#263238"></path><path d="M161.47,201.89,156,230.21c11.35,15.79,12.38,29.33,12.38,29.33l-61,7.15c0-11.06,8-28.95,8-28.95l-5.2-28-17.51,7.6-9.35-22.86c-.23.59,13-7.89,23.3-13.35,4.89-2.59,8.2-4.94,13.73-4.95h25.8a20.09,20.09,0,0,1,3.47.69s12.87-.69,12.87,11.69a118.48,118.48,0,0,1-1.05,13.34" style="fill:#FFC100"></path><path d="M131.5,231.91a20.68,20.68,0,0,1,2.34-6.18,10.84,10.84,0,0,1-.93,3.18A11,11,0,0,1,131.5,231.91Z" style="fill:#fafafa"></path><path d="M132.48,242.81a17.24,17.24,0,0,1-4-4.48,8.73,8.73,0,0,1,2.21,2.07A8.91,8.91,0,0,1,132.48,242.81Z" style="fill:#fafafa"></path><path d="M144.91,233.29a8.59,8.59,0,0,1-2.86.71,8.63,8.63,0,0,1-2.94.2,8.74,8.74,0,0,1,2.86-.72A8.19,8.19,0,0,1,144.91,233.29Z" style="fill:#fafafa"></path><path d="M146.08,223.92a13.14,13.14,0,0,1-1.57-3.31,13.41,13.41,0,0,1-1.09-3.5,12.75,12.75,0,0,1,1.57,3.31A13.08,13.08,0,0,1,146.08,223.92Z" style="fill:#fafafa"></path><path d="M155.17,221.77a9.79,9.79,0,0,1-1.68,2.66,9.34,9.34,0,0,1-2.09,2.35,10,10,0,0,1,1.68-2.66A9.81,9.81,0,0,1,155.17,221.77Z" style="fill:#fafafa"></path><path d="M154.48,238.87a21.34,21.34,0,0,1-3.22-5.8,21.66,21.66,0,0,1,3.22,5.8Z" style="fill:#fafafa"></path><path d="M145.2,247a8.53,8.53,0,0,1-1.65-2.38,8.09,8.09,0,0,1-1.2-2.64,8.35,8.35,0,0,1,1.65,2.38A8.09,8.09,0,0,1,145.2,247Z" style="fill:#fafafa"></path><path d="M137,256.05a15.94,15.94,0,0,1-3-.69,16.53,16.53,0,0,1-2.95-.77,6.43,6.43,0,0,1,3.08.26A6.56,6.56,0,0,1,137,256.05Z" style="fill:#fafafa"></path><path d="M154.52,251.07a16.14,16.14,0,0,1-2.3,2.6,15.18,15.18,0,0,1-2.47,2.43,9.55,9.55,0,0,1,2.1-2.79A9.28,9.28,0,0,1,154.52,251.07Z" style="fill:#fafafa"></path><path d="M162.59,255.64a9,9,0,0,1,.2-3,8.55,8.55,0,0,1,.72-2.93,9,9,0,0,1-.2,3A8.91,8.91,0,0,1,162.59,255.64Z" style="fill:#fafafa"></path><path d="M119.49,253a27.85,27.85,0,0,1-1.53,7.45,27.85,27.85,0,0,1,1.53-7.45Z" style="fill:#fafafa"></path><path d="M122.48,244.81A19.32,19.32,0,0,1,119.4,243a17.46,17.46,0,0,1-3-2,9.68,9.68,0,0,1,3.26,1.51A9.21,9.21,0,0,1,122.48,244.81Z" style="fill:#fafafa"></path><path d="M123.88,228.92c.1.11-.69,1-1.75,2.07a7.45,7.45,0,0,1-2.11,1.69c-.1-.11.68-1,1.74-2.07A7.42,7.42,0,0,1,123.88,228.92Z" style="fill:#fafafa"></path><path d="M119.6,219.83a7.66,7.66,0,0,1-2.1-1.84,7.45,7.45,0,0,1-1.72-2.2,7.88,7.88,0,0,1,2.1,1.84A7.45,7.45,0,0,1,119.6,219.83Z" style="fill:#fafafa"></path><path d="M132.84,213.67a6.08,6.08,0,0,1-2.54,1.58,6.15,6.15,0,0,1-2.93.65,15.66,15.66,0,0,1,2.73-1.13A15.13,15.13,0,0,1,132.84,213.67Z" style="fill:#fafafa"></path><path d="M152.53,210.77a11,11,0,0,1,1.19-2.63,11.48,11.48,0,0,1,1.39-2.53,10.32,10.32,0,0,1-2.58,5.16Z" style="fill:#fafafa"></path><path d="M137.4,204.86c.13-.08.85.91,1.82,2.06a11.43,11.43,0,0,1,1.72,2.15c-.09.11-1.12-.63-2.12-1.82A5.63,5.63,0,0,1,137.4,204.86Z" style="fill:#fafafa"></path><path d="M105.23,202.78a14,14,0,0,1-2.19,4.9,14.23,14.23,0,0,1,2.19-4.9Z" style="fill:#fafafa"></path><path d="M95.21,205.25a14.79,14.79,0,0,1-1.76-3.42,14.42,14.42,0,0,1-1.28-3.63,14.79,14.79,0,0,1,1.76,3.42A14.42,14.42,0,0,1,95.21,205.25Z" style="fill:#fafafa"></path><path d="M101.32,193.76a9.43,9.43,0,0,1-2.93-.92,9.2,9.2,0,0,1-2.74-1.4,9.45,9.45,0,0,1,2.94.92A9,9,0,0,1,101.32,193.76Z" style="fill:#fafafa"></path><path d="M110.89,180.87a11.88,11.88,0,0,1-2.47,2.51,11.73,11.73,0,0,1-2.82,2.13,12.31,12.31,0,0,1,2.48-2.52A12.13,12.13,0,0,1,110.89,180.87Z" style="fill:#fafafa"></path><path d="M123.24,127.84c-5.07,2.3-7.11,7.9-7.61,13.06s0,10.51-2,15.33c-1.67,4.07-5.11,7.78-4.73,12.13.29,3.25,2.71,6.1,3.15,9.34.86,6.26-5.79,11.87-4.58,18.08.55,2.85,6.78,9.83,9.39,11.51l13.91-2.37,1.88-6.39,1.32,6.08L146.39,203l.63-6.76,2.5,6,4.89.8a12.23,12.23,0,0,0,9-3.42,8.12,8.12,0,0,0,1.85-8.55c-1.62-4-6.63-6.6-7.4-10.8-.7-3.81,2.4-7.57,1.43-11.33-1.09-4.19-6.69-6.39-8.05-10.51-1.62-4.94,3.57-10.22,1.55-15-1.19-2.84-4.61-4.64-5.54-7.55-.63-2,0-4.16-.4-6.19-.79-3.52-4.75-5.8-8.61-6.6a20.18,20.18,0,0,0-14,2A14.23,14.23,0,0,0,117,135.79" style="fill:#263238"></path><path d="M130.81,124.26a17.1,17.1,0,0,1,22.87,12.64c.78,3.92.2,8.17,1.9,11.78,1.86,3.93,6.2,6.63,6.86,10.92s-2.46,7.92-3.1,12.07c-.68,4.31,1.36,8.68.87,13A11.31,11.31,0,0,1,140.56,191" style="fill:#263238"></path><path d="M137.27,157.4a3,3,0,0,1-1,.42,11,11,0,0,1-2.8.51,14.91,14.91,0,0,1-4.2-.37,26.67,26.67,0,0,1-4.86-1.74,28.9,28.9,0,0,1-4.54-2.44,14.31,14.31,0,0,1-3.16-2.81,8.36,8.36,0,0,1-1.39-2.49,3.58,3.58,0,0,1-.19-1,4.29,4.29,0,0,1,.38,1,9.8,9.8,0,0,0,1.49,2.33,15.13,15.13,0,0,0,3.14,2.64,31.75,31.75,0,0,0,4.48,2.37,28.93,28.93,0,0,0,4.76,1.74,15.63,15.63,0,0,0,4.08.47A19.79,19.79,0,0,0,137.27,157.4Z" style="fill:#455a64"></path><path d="M137.46,153.83a4.36,4.36,0,0,1-1.1-.06,12.61,12.61,0,0,1-2.9-.76,20.06,20.06,0,0,1-7.92-5.82,63.73,63.73,0,0,1-5.61-8.1c-.64-1.08-1.14-2-1.47-2.59a4.5,4.5,0,0,1-.47-1,4.23,4.23,0,0,1,.64.89l1.62,2.5a80,80,0,0,0,5.68,8,21.24,21.24,0,0,0,7.67,5.82A27.44,27.44,0,0,0,137.46,153.83Z" style="fill:#455a64"></path><path d="M140.75,156.11c.05,0,.28.56,1,1.41a8,8,0,0,0,3.72,2.58,7.76,7.76,0,0,0,3.1.4,6.85,6.85,0,0,0,3.33-1.22,7.39,7.39,0,0,0-1.55-13.2,6.78,6.78,0,0,0-3.52-.41,7.61,7.61,0,0,0-2.93,1.1,8.08,8.08,0,0,0-3,3.37c-.46,1-.55,1.61-.6,1.59a1.47,1.47,0,0,1,0-.44,6,6,0,0,1,.37-1.23,8,8,0,0,1,3-3.6,8.16,8.16,0,0,1,3.06-1.22,7.15,7.15,0,0,1,3.76.39,7.84,7.84,0,0,1,1.65,14.05,7.26,7.26,0,0,1-3.57,1.25,8.2,8.2,0,0,1-7-3.28,6.15,6.15,0,0,1-.64-1.11A2,2,0,0,1,140.75,156.11Z" style="fill:#455a64"></path><path d="M143.83,159.57a3.48,3.48,0,0,1-1.61-.82,7,7,0,0,1-2.25-8,3.42,3.42,0,0,1,.94-1.54c.07.05-.29.63-.59,1.66a7.3,7.3,0,0,0,2.14,7.55C143.25,159.19,143.86,159.49,143.83,159.57Z" style="fill:#FFC100"></path><path d="M153.74,141.6a3.42,3.42,0,0,1,.06,2.68,3.36,3.36,0,0,1-1.5,2.22c-.12-.1.62-1,1-2.37S153.58,141.62,153.74,141.6Z" style="fill:#455a64"></path><path d="M154.85,149.73a5.73,5.73,0,0,1-1.36,2,11.4,11.4,0,0,1-10.84,3.46,5.71,5.71,0,0,1-2.28-.86c0-.08.89.27,2.35.5a12.15,12.15,0,0,0,10.5-3.36C154.28,150.47,154.77,149.68,154.85,149.73Z" style="fill:#455a64"></path><path d="M142.1,197.62s-.12-.09-.29-.29a9.29,9.29,0,0,1-.71-.92,15.5,15.5,0,0,1-1.86-3.85,22.49,22.49,0,0,1-1.07-6.25,44.81,44.81,0,0,1,.51-7.74c.37-2.72.81-5.3,1.06-7.65a39.88,39.88,0,0,0,.25-6.26,24.81,24.81,0,0,0-.55-4.18c-.22-1-.39-1.51-.35-1.52s.08.12.17.37a8.55,8.55,0,0,1,.37,1.1,20.66,20.66,0,0,1,.73,4.21,36.28,36.28,0,0,1-.14,6.33c-.23,2.38-.66,5-1,7.67a47.34,47.34,0,0,0-.54,7.65,23.41,23.41,0,0,0,.94,6.16A19.19,19.19,0,0,0,142.1,197.62Z" style="fill:#455a64"></path><path d="M159.48,191.18s-.12,0-.37.08a4.62,4.62,0,0,1-1.08.06,8.68,8.68,0,0,1-3.82-1.06,12,12,0,0,1-4.32-4A24.35,24.35,0,0,1,147,179.7,75.31,75.31,0,0,1,144.3,167c-.2-1.66-.3-3-.35-3.93a8.49,8.49,0,0,1,0-1.45,7.26,7.26,0,0,1,.21,1.43c.11.92.27,2.26.51,3.9a88.14,88.14,0,0,0,2.81,12.63,24.78,24.78,0,0,0,2.82,6.46,12,12,0,0,0,4.1,3.93,9.09,9.09,0,0,0,3.66,1.18C159,191.2,159.47,191.13,159.48,191.18Z" style="fill:#455a64"></path></g><g id="freepik--Plant--inject-125"><path d="M678.87,416.93c1.71,2.44,5,1.63,6.57.15s2.2-3.65,2.79-5.71c1.35-4.71,2.72-9.65,1.71-14.44A8.05,8.05,0,0,0,688.1,393a4.19,4.19,0,0,0-4-1.32c-1.68.44-2.72,2.08-3.47,3.64a34.47,34.47,0,0,0-3.4,14.77,11.92,11.92,0,0,0,1.61,6.83" style="fill:#FFC100"></path><g style="opacity:0.2"><path d="M678.87,416.93c1.71,2.44,5,1.63,6.57.15s2.2-3.65,2.79-5.71c1.35-4.71,2.72-9.65,1.71-14.44A8.05,8.05,0,0,0,688.1,393a4.19,4.19,0,0,0-4-1.32c-1.68.44-2.72,2.08-3.47,3.64a34.47,34.47,0,0,0-3.4,14.77,11.92,11.92,0,0,0,1.61,6.83"></path></g><path d="M685.28,429.29a14.77,14.77,0,0,1,9.19-1.11,7.64,7.64,0,0,1,4.54,2c1.13,1.26,1.34,3.46,0,4.54a4.34,4.34,0,0,1-2.86.72c-2.43,0-5.12-.45-7.07,1-1.1.83-1.84,2.22-3.16,2.63a3.15,3.15,0,0,1-3.45-1.53,5.39,5.39,0,0,1-.39-3.95A6.05,6.05,0,0,1,685.28,429.29Z" style="fill:#FFC100"></path><path d="M674.18,420.43a8.85,8.85,0,0,0,1.38-8.17,15.66,15.66,0,0,0-4.84-7,26,26,0,0,0-8.67-5.12,9.17,9.17,0,0,0-3.9-.66,4.1,4.1,0,0,0-3.27,2c-.91,1.74,0,3.85.91,5.57a65.72,65.72,0,0,0,5.69,8.67c1.71,2.2,3.66,4.37,6.27,5.37s5.3.88,6.68-.93" style="fill:#FFC100"></path><path d="M679.27,452.05c.08-.81-.18-1.22-.06-2.43a41.88,41.88,0,0,1,.68-4.44,33.72,33.72,0,0,1,1.61-5.24,19.22,19.22,0,0,1,2.68-4.74,9.93,9.93,0,0,1,3.38-2.82,9.37,9.37,0,0,1,2.85-.88,6,6,0,0,0,1.1-.16,5.07,5.07,0,0,0-1.12,0,8.7,8.7,0,0,0-3,.77,10,10,0,0,0-3.57,2.84,18.57,18.57,0,0,0-2.77,4.84,32.47,32.47,0,0,0-1.61,5.32,38.84,38.84,0,0,0-.59,4.5A18.93,18.93,0,0,0,679,452" style="fill:#263238"></path><path d="M679,451.43a3.52,3.52,0,0,0,0-.52c0-.39,0-.87,0-1.47,0-1.28,0-3.13.07-5.41.11-4.56.5-10.87,1.26-17.79s1.78-13.16,2.7-17.63c.22-1.13.44-2.13.65-3s.37-1.65.53-2.26l.34-1.43a1.65,1.65,0,0,0,.09-.51,3,3,0,0,0-.18.48l-.42,1.41c-.19.61-.39,1.37-.61,2.25s-.47,1.89-.71,3a164.25,164.25,0,0,0-2.84,17.65c-.76,6.94-1.11,13.26-1.14,17.84,0,2.28,0,4.14.08,5.41,0,.6.07,1.09.09,1.48A2,2,0,0,0,679,451.43Z" style="fill:#263238"></path><path d="M679,439.24a11.34,11.34,0,0,0,0-1.54c-.06-1-.2-2.42-.48-4.17a57.12,57.12,0,0,0-3.89-13.25,38.15,38.15,0,0,0-7.45-11.6,18,18,0,0,0-1.75-1.63c-.27-.23-.51-.46-.75-.64L664,406a9.13,9.13,0,0,0-1.3-.83,44.81,44.81,0,0,1,4.25,3.78,40.52,40.52,0,0,1,7.26,11.57,56,56,0,0,1,2.55,7.11c.67,2.23,1.11,4.28,1.45,6s.5,3.14.61,4.12A8.63,8.63,0,0,0,679,439.24Z" style="fill:#263238"></path></g></svg>